<svg xmlns="http://www.w3.org/2000/svg" width="410" height="50" viewBox="0 0 410 50"><g transform="translate(-170 -1632)"><rect width="50" height="50" rx="25" transform="translate(230 1632)" fill="#1c2445"/><text transform="translate(256 1666)" fill="#f6f7f9" font-size="22.62" font-family="Lato-Bold, Lato" font-weight="700"><tspan x="-6.56" y="0">1</tspan></text><g transform="translate(-60)"><rect width="50" height="50" rx="25" transform="translate(230 1632)" fill="#1c2445"/><path d="M15.321,18l8.937-8.93a1.688,1.688,0,0,0-2.391-2.384L11.742,16.8a1.685,1.685,0,0,0-.049,2.327L21.86,29.32a1.688,1.688,0,0,0,2.391-2.384Z" transform="translate(236.749 1638.806)" fill="#f6f7f9"/></g><g transform="translate(60)"><rect width="50" height="50" rx="25" transform="translate(230 1632)" fill="#1c2445"/><text transform="translate(255 1666)" fill="#f6f7f9" font-size="22.62" font-family="Lato-Bold, Lato" font-weight="700"><tspan x="-6.56" y="0">2</tspan></text></g><g transform="translate(120)"><rect width="50" height="50" rx="25" transform="translate(230 1632)" fill="#1c2445"/><text transform="translate(255 1666)" fill="#f6f7f9" font-size="22.62" font-family="Lato-Bold, Lato" font-weight="700"><tspan x="-6.56" y="0">3</tspan></text></g><g transform="translate(180)"><rect width="50" height="50" rx="25" transform="translate(230 1632)" fill="#1c2445"/><text transform="translate(255 1666)" fill="#f6f7f9" font-size="22.62" font-family="Lato-Bold, Lato" font-weight="700"><tspan x="-6.56" y="0">4</tspan></text></g><g transform="translate(240)"><rect width="50" height="50" rx="25" transform="translate(230 1632)" fill="#1c2445"/><text transform="translate(255 1666)" fill="#f6f7f9" font-size="22.62" font-family="Lato-Bold, Lato" font-weight="700"><tspan x="-6.56" y="0">5</tspan></text></g><g transform="translate(300)"><rect width="50" height="50" rx="25" transform="translate(230 1632)" fill="#1c2445"/><path d="M20.683,18,11.746,9.07a1.688,1.688,0,1,1,2.391-2.384L24.262,16.8a1.685,1.685,0,0,1,.049,2.327L14.144,29.32a1.688,1.688,0,0,1-2.391-2.384Z" transform="translate(236.749 1638.806)" fill="#f6f7f9"/></g></g></svg>