<svg xmlns="http://www.w3.org/2000/svg" width="436.88" height="88.17" viewBox="0 0 436.88 88.17"><title>horizontal-11</title><polygon points="77.35 28.67 116.28 5.07 116.28 2.46 75.14 27.39 77.35 28.67" fill="#dadada"/><polygon points="83.26 32.1 116.28 12.09 116.28 9.48 81.05 30.82 83.26 32.1" fill="#dadada"/><polygon points="89.17 35.53 116.28 19.11 116.28 16.5 86.96 34.25 89.17 35.53" fill="#dadada"/><polygon points="95.08 38.96 116.28 26.13 116.28 23.52 92.87 37.68 95.08 38.96" fill="#dadada"/><polygon points="98.78 41.11 100.99 42.39 116.28 33.15 116.28 30.54 98.78 41.11" fill="#dadada"/><polygon points="66.87 59.5 27.94 83.1 27.94 85.72 69.08 60.78 66.87 59.5" fill="#dadada"/><polygon points="60.96 56.07 27.94 76.08 27.94 78.69 63.17 57.35 60.96 56.07" fill="#dadada"/><polygon points="55.05 52.64 27.94 69.06 27.94 71.67 57.26 53.92 55.05 52.64" fill="#dadada"/><polygon points="49.14 49.21 27.94 62.04 27.94 64.65 51.35 50.49 49.14 49.21" fill="#dadada"/><polygon points="45.44 47.06 43.23 45.78 27.94 55.02 27.94 57.63 45.44 47.06" fill="#dadada"/><polygon points="24.27 2.64 144.22 72.21 119.95 85.6 0 16.03 24.27 2.64" fill="#11173d"/><polygon points="0 20.72 0 74.36 23.93 88.17 23.93 34.53 0 20.72" fill="#11173d"/><polygon points="144.22 67.45 144.22 13.81 120.29 0 120.29 53.64 144.22 67.45" fill="#11173d"/><path d="M181.27,20.91l1.27,1.62,21.52,27.21c-.08-.87-.15-1.72-.19-2.54s-.06-1.59-.06-2.31v-24h9.27V66.22h-7.76L182.57,37.48c.06.79.11,1.56.16,2.32s.06,1.47.06,2.13V66.22h-9.27V20.91h7.75Z" fill="#11173d"/><path d="M270.51,20.91V29H251.92V39.57h14.24v7.77H251.92V58.13h18.59v8.09H241.35V20.91Z" fill="#11173d"/><path d="M307,57.82h16.79v8.4h-27.3V20.91H307Z" fill="#11173d"/><path d="M373.86,20.91v8.33H361.11V65.67a.55.55,0,0,1-.54.55h-10v-37H337.85V20.91Z" fill="#11173d"/><path d="M408.9,30.24C408.57,31.5,397.64,64,397.64,64c-.23.58-.73,2.26-.72,2.27H386l17.54-45.31h10.76l17.54,45.31H421S409.25,31.48,408.9,30.24Z" fill="#11173d"/><path d="M432.35,24.87c-.05-.1-.3-.5-.31-.51a1.49,1.49,0,0,0,.78-.56,1.61,1.61,0,0,0,.28-.95,1.4,1.4,0,0,0-.53-1.18,2.74,2.74,0,0,0-1.68-.41h-2v5.5h1.31v-2h.34a.46.46,0,0,1,.23,0,.57.57,0,0,1,.14.13l1,1.82h1.52Zm-.59-1.51a.54.54,0,0,1-.16.26.64.64,0,0,1-.31.15,1.81,1.81,0,0,1-.52.06h-.54V22.25h.66a1.89,1.89,0,0,1,.46.05.57.57,0,0,1,.28.14.48.48,0,0,1,.14.24,1.55,1.55,0,0,1,0,.33A1.25,1.25,0,0,1,431.76,23.36Z" fill="#11173d"/><path d="M430.83,19.27a4.73,4.73,0,0,1,1.26.17,5,5,0,0,1,1.14.48,4.57,4.57,0,0,1,.95.74,5,5,0,0,1,.75,1,4.9,4.9,0,0,1,.47,1.13,4.45,4.45,0,0,1,.17,1.26,4.36,4.36,0,0,1-.17,1.26,4.9,4.9,0,0,1-.47,1.13,5.18,5.18,0,0,1-1.7,1.7,5,5,0,0,1-1.14.47,4.36,4.36,0,0,1-1.26.17,4.45,4.45,0,0,1-1.26-.17,4.82,4.82,0,0,1-1.12-.47,5,5,0,0,1-1-.75,4.57,4.57,0,0,1-.74-1,4.93,4.93,0,0,1-.48-1.13A4.73,4.73,0,0,1,426.1,24a4.85,4.85,0,0,1,.17-1.26,4.75,4.75,0,0,1,2.18-2.83,4.61,4.61,0,0,1,2.38-.65m0-1.3a5.79,5.79,0,0,0-1.61.22,5.87,5.87,0,0,0-1.43.61,5.59,5.59,0,0,0-1.22.94,6.16,6.16,0,0,0-.95,1.22,6.09,6.09,0,0,0-.6,1.44,6,6,0,0,0,0,3.23,6,6,0,0,0,.61,1.43,6.11,6.11,0,0,0,.94,1.22,6.13,6.13,0,0,0,2.65,1.55,6,6,0,0,0,4.66-.61,6.26,6.26,0,0,0,1.23-.94,6.51,6.51,0,0,0,.94-1.22,5.94,5.94,0,0,0,.61-1.44,6,6,0,0,0,0-3.22,6.11,6.11,0,0,0-.61-1.44,6.2,6.2,0,0,0-.94-1.22,6.31,6.31,0,0,0-1.23-.95,6.17,6.17,0,0,0-3.05-.82Z" fill="#11173d"/></svg>