<svg xmlns="http://www.w3.org/2000/svg" width="880.778" height="112" viewBox="0 0 880.778 112"><g transform="translate(-137 -3962)"><g transform="translate(644 161)"><g transform="translate(137 3801)"><circle cx="56" cy="56" r="56" fill="#6d8aff"/><text transform="translate(23 74)" fill="#fff" font-size="46" font-family="Lato-Light, Lato" font-weight="300"><tspan x="0" y="0">HU</tspan></text></g><text transform="translate(274.778 3873.816)" fill="#051225" font-size="42" font-family="Lato-Regular, Lato"><tspan x="0" y="0">Huge</tspan></text></g><g transform="translate(395 177)"><g transform="translate(137 3801)"><circle cx="40" cy="40" r="40" fill="#fabe47"/><text transform="translate(21 53)" fill="#fff" font-size="32" font-family="Lato-Light, Lato" font-weight="300"><tspan x="0" y="0">LA</tspan></text></g><text transform="translate(227.127 3854)" fill="#051225" font-size="32" font-family="Lato-Regular, Lato"><tspan x="0" y="0">Large</tspan></text></g><g transform="translate(158 185)"><g transform="translate(137 3801)"><circle cx="32" cy="32" r="32" fill="#3cb08b"/><text transform="translate(14 42)" fill="#fff" font-size="24" font-family="Lato-Light, Lato" font-weight="300"><tspan x="0" y="0">ME</tspan></text></g><text transform="translate(211.127 3843)" fill="#051225" font-size="24" font-family="Lato-Regular, Lato"><tspan x="0" y="0">Medium</tspan></text></g><g transform="translate(0 199)"><g transform="translate(137 3801)"><circle cx="18" cy="18" r="18" fill="#f45564"/><text transform="translate(10 24)" fill="#fff" font-size="15" font-family="Lato-Light, Lato" font-weight="300"><tspan x="0" y="0">SL</tspan></text></g><text transform="translate(183.127 3825)" fill="#051225" font-size="15" font-family="Lato-Regular, Lato"><tspan x="0" y="0">Small</tspan></text></g></g></svg>