<svg xmlns="http://www.w3.org/2000/svg" width="346" height="137" viewBox="0 0 346 137"><g transform="translate(-137 -3182)"><g transform="translate(0 262)"><rect width="63" height="28" transform="translate(137 3029)" fill="#374683"/><text transform="translate(151 3047)" fill="#fff" font-size="10" font-family="Lato-Regular, Lato"><tspan x="0" y="0">Primary</tspan></text></g><g transform="translate(75 262)"><rect width="62" height="28" transform="translate(137 3029)" fill="#3cb08b"/><text transform="translate(151 3047)" fill="#fff" font-size="10" font-family="Lato-Regular, Lato"><tspan x="0" y="0">Success</tspan></text></g><g transform="translate(149 262)"><rect width="61" height="28" transform="translate(137 3029)" fill="#f45564"/><text transform="translate(151 3047)" fill="#fff" font-size="10" font-family="Lato-Regular, Lato"><tspan x="0" y="0">Danger</tspan></text></g><g transform="translate(222 262)"><rect width="46" height="28" transform="translate(137 3029)" fill="#6d8aff"/><text transform="translate(151 3047)" fill="#fff" font-size="10" font-family="Lato-Regular, Lato"><tspan x="0" y="0">Info</tspan></text></g><g transform="translate(280 262)"><rect width="66" height="28" transform="translate(137 3029)" fill="#fabe47"/><text transform="translate(151 3047)" fill="#fff" font-size="10" font-family="Lato-Regular, Lato"><tspan x="0" y="0">Warning</tspan></text></g><g transform="translate(13)"><circle cx="14" cy="14" r="14" transform="translate(202 3240)" fill="#f45564"/><text transform="translate(213 3258)" fill="#fff" font-size="10" font-family="Lato-Bold, Lato" font-weight="700"><tspan x="0" y="0">2</tspan></text></g><g transform="translate(0 211)"><rect width="68" height="28" rx="14" transform="translate(137 3029)" fill="#f6f7f9"/><text transform="translate(151 3047)" fill="#051225" font-size="10" font-family="Lato-Regular, Lato"><tspan x="0" y="0">Rounded</tspan></text></g><g transform="translate(243 159)"><rect width="67" height="35" transform="translate(137 3023)" fill="#f6f7f9"/><text transform="translate(151 3047)" fill="#051225" font-size="16" font-family="Lato-Regular, Lato"><tspan x="0" y="0">Large</tspan></text></g><g transform="translate(145 159)"><rect width="79" height="33" transform="translate(137 3025)" fill="#f6f7f9"/><text transform="translate(151 3047)" fill="#051225" font-size="14" font-family="Lato-Regular, Lato"><tspan x="0" y="0">Medium</tspan></text></g><g transform="translate(66 159)"><rect width="61" height="28" transform="translate(137 3029)" fill="#f6f7f9"/><text transform="translate(151 3047)" fill="#051225" font-size="10" font-family="Lato-Regular, Lato"><tspan x="0" y="0">Normal</tspan></text></g><g transform="translate(0 159)"><rect width="47" height="26" transform="translate(137 3031)" fill="#f6f7f9"/><text transform="translate(151 3047)" fill="#051225" font-size="8" font-family="Lato-Regular, Lato"><tspan x="0" y="0">Small</tspan></text></g></g></svg>