<svg xmlns="http://www.w3.org/2000/svg" width="168.07" height="154.59" viewBox="0 0 168.07 154.59"><title>vertical-10</title><path d="M7.07,126.05s.61.8.8,1l13.55,17.14c-.05-.55-.09-1.08-.12-1.6s0-1,0-1.46v-15.1H27.1v28.54H22.22L7.89,136.49c0,.5.07,1,.09,1.46s0,.92,0,1.34v15.3H2.19V126.05H7.07Z" fill="#fff"/><path d="M63.28,126.05v5.09H51.57v6.66h9v4.9h-9v6.8H63.28v5.09H44.91V126.05Z" fill="#fff"/><path d="M86.26,149.3H96.84v5.29H79.64V126.05h6.62Z" fill="#fff"/><path d="M128.38,126.05v5.25h-8v22.95a.34.34,0,0,1-.34.34h-6.28V131.3h-8v-5.25Z" fill="#fff"/><path d="M150.45,131.93c-.21.79-7.09,21.23-7.09,21.23-.14.37-.46,1.42-.46,1.43H136l11.05-28.54h6.78l11,28.54h-6.84S150.67,132.71,150.45,131.93Z" fill="#fff"/><path d="M165.22,128.55c0-.07-.19-.32-.19-.32a1,1,0,0,0,.49-.36,1,1,0,0,0,.18-.6.89.89,0,0,0-.34-.74,1.76,1.76,0,0,0-1.06-.26h-1.24v3.46h.83v-1.25h.21a.33.33,0,0,1,.15,0,.2.2,0,0,1,.08.08l.64,1.14h.95Zm-.37-1a.37.37,0,0,1-.1.17.62.62,0,0,1-.2.1,1.39,1.39,0,0,1-.32,0h-.34v-1h.41l.29,0a.44.44,0,0,1,.18.09.28.28,0,0,1,.08.15.66.66,0,0,1,0,.21A.69.69,0,0,1,164.85,127.59Z" fill="#fff"/><path d="M164.26,125a3,3,0,0,1,.8.11,3,3,0,0,1,.71.3,3.05,3.05,0,0,1,.61.46,3.37,3.37,0,0,1,.46.61,3.47,3.47,0,0,1,.31.71,3.21,3.21,0,0,1,0,1.59,3.47,3.47,0,0,1-.31.71,3,3,0,0,1-.46.6,3.1,3.1,0,0,1-.61.47,3,3,0,0,1-.71.3,2.93,2.93,0,0,1-1.59,0,3,3,0,0,1-.71-.3,3.16,3.16,0,0,1-1.07-1.07,2.87,2.87,0,0,1-.4-1.5,3,3,0,0,1,.1-.8,3,3,0,0,1,.3-.71,3.42,3.42,0,0,1,.47-.61,3,3,0,0,1,2.1-.87m0-.82a3.47,3.47,0,0,0-1,.14,4,4,0,0,0-.9.38,3.66,3.66,0,0,0-.77.59,3.69,3.69,0,0,0-1,1.68,3.86,3.86,0,0,0-.14,1,3.73,3.73,0,0,0,.14,1,3.68,3.68,0,0,0,.39.91,3.88,3.88,0,0,0,.59.76,4.08,4.08,0,0,0,.77.6,4,4,0,0,0,.9.38,3.75,3.75,0,0,0,2,0,3.69,3.69,0,0,0,1.68-1,3.88,3.88,0,0,0,.59-.76,3.68,3.68,0,0,0,.39-.91,4,4,0,0,0,0-2,3.79,3.79,0,0,0-2.66-2.65,3.49,3.49,0,0,0-1-.14Z" fill="#fff"/><polygon points="87.86 32.57 132.08 5.76 132.08 2.79 85.36 31.11 87.86 32.57" fill="#fff"/><polygon points="94.57 36.46 132.08 13.74 132.08 10.76 92.07 35.01 94.57 36.46" fill="#fff"/><polygon points="101.29 40.36 132.08 21.71 132.08 18.74 98.78 38.91 101.29 40.36" fill="#fff"/><polygon points="108 44.25 132.08 29.68 132.08 26.71 105.49 42.8 108 44.25" fill="#fff"/><polygon points="112.21 46.7 114.71 48.15 132.08 37.66 132.08 34.69 112.21 46.7" fill="#fff"/><polygon points="75.96 67.58 31.74 94.39 31.74 97.36 78.47 69.04 75.96 67.58" fill="#fff"/><polygon points="69.25 63.69 31.74 86.42 31.74 89.39 71.75 65.14 69.25 63.69" fill="#fff"/><polygon points="62.53 59.79 31.74 78.44 31.74 81.41 65.04 61.25 62.53 59.79" fill="#fff"/><polygon points="55.82 55.9 31.74 70.47 31.74 73.44 58.33 57.35 55.82 55.9" fill="#fff"/><polygon points="51.62 53.46 49.11 52 31.74 62.5 31.74 65.47 51.62 53.46" fill="#fff"/><polygon points="27.57 3 163.82 82.02 136.25 97.24 0 18.21 27.57 3" fill="#e0ff4f"/><polygon points="0 23.54 0 84.46 27.18 100.15 27.18 39.22 0 23.54" fill="#e0ff4f"/><polygon points="163.82 76.62 163.82 15.69 136.64 0 136.64 60.93 163.82 76.62" fill="#e0ff4f"/></svg>