<svg xmlns="http://www.w3.org/2000/svg" width="168.07" height="167.44" viewBox="0 0 168.07 167.44"><title>vertical-3</title><path d="M7.07,126.05s.61.8.8,1l13.55,17.14c-.05-.55-.09-1.08-.12-1.6s0-1,0-1.46v-15.1H27.1v28.54H22.22L7.89,136.49c0,.5.07,1,.09,1.46s0,.92,0,1.34v15.3H2.19V126.05H7.07Z" fill="#11173d"/><path d="M63.28,126.05v5.09H51.57v6.66h9v4.9h-9v6.8H63.28v5.09H44.91V126.05Z" fill="#11173d"/><path d="M86.26,149.3H96.84v5.29H79.64V126.05h6.62Z" fill="#11173d"/><path d="M128.38,126.05v5.25h-8v22.95a.34.34,0,0,1-.34.34h-6.28V131.3h-8v-5.25Z" fill="#11173d"/><path d="M150.45,131.93c-.21.79-7.09,21.23-7.09,21.23-.14.37-.46,1.42-.46,1.43H136l11.05-28.54h6.78l11,28.54h-6.84S150.67,132.71,150.45,131.93Z" fill="#11173d"/><path d="M165.22,128.55c0-.07-.19-.32-.19-.32a1,1,0,0,0,.49-.36,1,1,0,0,0,.18-.6.89.89,0,0,0-.34-.74,1.76,1.76,0,0,0-1.06-.26h-1.24v3.46h.83v-1.25h.21a.33.33,0,0,1,.15,0,.2.2,0,0,1,.08.08l.64,1.14h.95Zm-.37-1a.37.37,0,0,1-.1.17.62.62,0,0,1-.2.1,1.39,1.39,0,0,1-.32,0h-.34v-1h.41l.29,0a.44.44,0,0,1,.18.09.28.28,0,0,1,.08.15.66.66,0,0,1,0,.21A.69.69,0,0,1,164.85,127.59Z" fill="#11173d"/><path d="M164.26,125a3,3,0,0,1,.8.11,3,3,0,0,1,.71.3,3.05,3.05,0,0,1,.61.46,3.37,3.37,0,0,1,.46.61,3.47,3.47,0,0,1,.31.71,3.21,3.21,0,0,1,0,1.59,3.47,3.47,0,0,1-.31.71,3,3,0,0,1-.46.6,3.1,3.1,0,0,1-.61.47,3,3,0,0,1-.71.3,2.93,2.93,0,0,1-1.59,0,3,3,0,0,1-.71-.3,3.16,3.16,0,0,1-1.07-1.07,2.87,2.87,0,0,1-.4-1.5,3,3,0,0,1,.1-.8,3,3,0,0,1,.3-.71,3.42,3.42,0,0,1,.47-.61,3,3,0,0,1,2.1-.87m0-.82a3.47,3.47,0,0,0-1,.14,4,4,0,0,0-.9.38,3.66,3.66,0,0,0-.77.59,3.69,3.69,0,0,0-1,1.68,3.86,3.86,0,0,0-.14,1,3.73,3.73,0,0,0,.14,1,3.68,3.68,0,0,0,.39.91,3.88,3.88,0,0,0,.59.76,4.08,4.08,0,0,0,.77.6,4,4,0,0,0,.9.38,3.75,3.75,0,0,0,2,0,3.69,3.69,0,0,0,1.68-1,3.88,3.88,0,0,0,.59-.76,3.68,3.68,0,0,0,.39-.91,4,4,0,0,0,0-2,3.79,3.79,0,0,0-2.66-2.65,3.49,3.49,0,0,0-1-.14Z" fill="#11173d"/><path d="M5.24,165.82l.07.18.07-.18c0-.06,0-.12.08-.17l1.63-3a.19.19,0,0,1,.09-.09l.14,0H7.8v4.81H7.23V163.7s0-.1,0-.16l-1.65,3a.25.25,0,0,1-.23.15h-.1a.25.25,0,0,1-.23-.15l-1.68-3c0,.06,0,.12,0,.17s0,.11,0,.15v3.54H2.8v-4.81h.47l.14,0a.19.19,0,0,1,.09.09l1.66,3S5.21,165.76,5.24,165.82Z" fill="#11173d"/><path d="M17.43,167.39h-.5a.26.26,0,0,1-.14,0,.25.25,0,0,1-.08-.12l-.45-1.16H14.1l-.45,1.16a.21.21,0,0,1-.08.11.2.2,0,0,1-.14,0h-.5l1.92-4.81h.66Zm-3.15-1.79h1.8l-.76-1.95c0-.06-.05-.13-.07-.2s-.05-.16-.07-.25c0,.09,0,.17-.07.25s0,.14-.07.2Z" fill="#11173d"/><path d="M25.57,167.31a2.84,2.84,0,0,1-.9.13,2.89,2.89,0,0,1-1.05-.18,2.22,2.22,0,0,1-.79-.5,2.29,2.29,0,0,1-.51-.78,2.64,2.64,0,0,1-.18-1,2.93,2.93,0,0,1,.17-1,2.14,2.14,0,0,1,.5-.77,2.16,2.16,0,0,1,.77-.51,3,3,0,0,1,2,0,2.35,2.35,0,0,1,.39.19,2.85,2.85,0,0,1,.33.25l-.18.3a.27.27,0,0,1-.12.09.19.19,0,0,1-.15,0l-.18-.11a1.26,1.26,0,0,0-.26-.13,2.08,2.08,0,0,0-.35-.11,2.21,2.21,0,0,0-.48,0,1.86,1.86,0,0,0-.73.13,1.59,1.59,0,0,0-.56.38,1.66,1.66,0,0,0-.36.6,2.43,2.43,0,0,0-.12.79,2.55,2.55,0,0,0,.12.81,1.74,1.74,0,0,0,.37.6,1.47,1.47,0,0,0,.59.38,2,2,0,0,0,.76.14l.32,0,.28-.06a1.34,1.34,0,0,0,.26-.09l.25-.12v-1.06H25a.15.15,0,0,1-.1,0,.12.12,0,0,1,0-.09v-.37h1.48v1.84A2.48,2.48,0,0,1,25.57,167.31Z" fill="#11173d"/><path d="M32.25,162.59h0l.05,0,0,.05,2.78,3.62c0-.06,0-.11,0-.17s0-.1,0-.15v-3.41h.57v4.81h-.32a.25.25,0,0,1-.13,0,.41.41,0,0,1-.1-.09l-2.78-3.62a1,1,0,0,0,0,.17v3.57h-.57v-4.81h.41Z" fill="#11173d"/><path d="M42.11,167.39h-.65v-4.81h.65Z" fill="#11173d"/><path d="M50.8,162.58v.53H48.49v1.68h2v.53h-2v2.07h-.65v-4.81Z" fill="#11173d"/><path d="M56.78,167.39h-.65v-4.81h.65Z" fill="#11173d"/><path d="M65.47,162.58v.53H63.15v1.6H65v.51H63.15v1.64h2.32v.53h-3v-4.81Z" fill="#11173d"/><path d="M75,165a2.59,2.59,0,0,1-.17,1,2.06,2.06,0,0,1-.48.76,2.27,2.27,0,0,1-.75.49,2.74,2.74,0,0,1-1,.17H70.88v-4.81h1.79a2.74,2.74,0,0,1,1,.17,2.27,2.27,0,0,1,.75.49,2.14,2.14,0,0,1,.48.76A2.64,2.64,0,0,1,75,165Zm-.66,0a2.24,2.24,0,0,0-.13-.8,1.72,1.72,0,0,0-.34-.59,1.45,1.45,0,0,0-.53-.37,2,2,0,0,0-.71-.12H71.53v3.75h1.14a1.8,1.8,0,0,0,.71-.13,1.32,1.32,0,0,0,.53-.36,1.63,1.63,0,0,0,.34-.59A2.18,2.18,0,0,0,74.38,165Z" fill="#11173d"/><path d="M89.65,162.58v.53H87.34v1.6h1.87v.51H87.34v1.64h2.32v.53h-3v-4.81Z" fill="#11173d"/><path d="M98,162.58v.53H95.71v1.68h2v.53h-2v2.07h-.65v-4.81Z" fill="#11173d"/><path d="M106.32,162.58v.53H104v1.68h2v.53h-2v2.07h-.65v-4.81Z" fill="#11173d"/><path d="M112.3,167.39h-.65v-4.81h.65Z" fill="#11173d"/><path d="M121.4,166.4a.1.1,0,0,1,.09,0l.26.28a2,2,0,0,1-.71.53,2.44,2.44,0,0,1-1,.19,2.35,2.35,0,0,1-.94-.18,2,2,0,0,1-.72-.5,2.36,2.36,0,0,1-.47-.78,3.08,3.08,0,0,1,0-2,2.22,2.22,0,0,1,.48-.78,2.2,2.2,0,0,1,.74-.5,2.49,2.49,0,0,1,1-.18,2.35,2.35,0,0,1,.91.16,2.29,2.29,0,0,1,.69.45l-.22.3a.12.12,0,0,1,0,.05.11.11,0,0,1-.08,0,.29.29,0,0,1-.15-.06,1.53,1.53,0,0,0-.23-.15,1.69,1.69,0,0,0-.35-.14,1.6,1.6,0,0,0-.52-.07,1.65,1.65,0,0,0-.68.13,1.58,1.58,0,0,0-.54.37,2,2,0,0,0-.34.6,2.24,2.24,0,0,0-.13.8,2.48,2.48,0,0,0,.13.8,2,2,0,0,0,.35.59,1.52,1.52,0,0,0,.53.38,1.76,1.76,0,0,0,.66.12l.38,0,.32-.08a1.47,1.47,0,0,0,.28-.14c.08,0,.16-.12.25-.19A.13.13,0,0,1,121.4,166.4Z" fill="#11173d"/><path d="M127.65,167.39H127v-4.81h.65Z" fill="#11173d"/><path d="M136.34,162.58v.53H134v1.6h1.87v.51H134v1.64h2.32v.53h-3v-4.81Z" fill="#11173d"/><path d="M142.16,162.59h.05a.1.1,0,0,1,0,0l.05.05,2.78,3.62a1,1,0,0,0,0-.17v-3.56h.57v4.81h-.33a.28.28,0,0,1-.13,0,.41.41,0,0,1-.1-.09l-2.78-3.62c0,.06,0,.11,0,.17v3.57h-.57v-4.81h.41Z" fill="#11173d"/><path d="M154.75,166.4a.11.11,0,0,1,.09,0l.26.28a2,2,0,0,1-.72.53,2.4,2.4,0,0,1-1,.19,2.35,2.35,0,0,1-.94-.18,1.87,1.87,0,0,1-.72-.5,2.36,2.36,0,0,1-.47-.78,2.86,2.86,0,0,1-.16-1,2.66,2.66,0,0,1,.17-1,2.22,2.22,0,0,1,.48-.78,2.2,2.2,0,0,1,.74-.5,2.49,2.49,0,0,1,1-.18,2.38,2.38,0,0,1,.91.16,2.29,2.29,0,0,1,.69.45l-.22.3a.12.12,0,0,1-.05.05s0,0-.09,0a.27.27,0,0,1-.14-.06,1.53,1.53,0,0,0-.23-.15,1.69,1.69,0,0,0-.35-.14,1.6,1.6,0,0,0-.52-.07,1.65,1.65,0,0,0-.68.13,1.58,1.58,0,0,0-.54.37,1.77,1.77,0,0,0-.34.6,2.24,2.24,0,0,0-.13.8,2.48,2.48,0,0,0,.13.8,1.81,1.81,0,0,0,.35.59,1.52,1.52,0,0,0,.53.38,1.76,1.76,0,0,0,.66.12l.38,0,.32-.08a1.15,1.15,0,0,0,.27-.14,1.5,1.5,0,0,0,.25-.19A.16.16,0,0,1,154.75,166.4Z" fill="#11173d"/><path d="M162.16,165.47v1.92h-.65v-1.92l-1.76-2.89h.57a.18.18,0,0,1,.13,0,.31.31,0,0,1,.09.11l1.1,1.87.11.22.09.2.08-.2.11-.22,1.09-1.87a.43.43,0,0,1,.09-.1.2.2,0,0,1,.14,0h.57Z" fill="#11173d"/><polygon points="87.86 32.57 132.08 5.76 132.08 2.79 85.36 31.11 87.86 32.57" fill="#dadada"/><polygon points="94.57 36.46 132.08 13.74 132.08 10.76 92.07 35.01 94.57 36.46" fill="#dadada"/><polygon points="101.29 40.36 132.08 21.71 132.08 18.74 98.78 38.91 101.29 40.36" fill="#dadada"/><polygon points="108 44.25 132.08 29.68 132.08 26.71 105.49 42.8 108 44.25" fill="#dadada"/><polygon points="112.21 46.7 114.71 48.15 132.08 37.66 132.08 34.69 112.21 46.7" fill="#dadada"/><polygon points="75.96 67.58 31.74 94.39 31.74 97.36 78.47 69.04 75.96 67.58" fill="#dadada"/><polygon points="69.25 63.69 31.74 86.42 31.74 89.39 71.75 65.14 69.25 63.69" fill="#dadada"/><polygon points="62.53 59.79 31.74 78.44 31.74 81.41 65.04 61.25 62.53 59.79" fill="#dadada"/><polygon points="55.82 55.9 31.74 70.47 31.74 73.44 58.33 57.35 55.82 55.9" fill="#dadada"/><polygon points="51.62 53.46 49.11 52 31.74 62.5 31.74 65.47 51.62 53.46" fill="#dadada"/><polygon points="27.57 3 163.82 82.02 136.25 97.24 0 18.21 27.57 3" fill="#11173d"/><polygon points="0 23.54 0 84.46 27.18 100.15 27.18 39.22 0 23.54" fill="#11173d"/><polygon points="163.82 76.62 163.82 15.69 136.64 0 136.64 60.93 163.82 76.62" fill="#11173d"/></svg>