<svg xmlns="http://www.w3.org/2000/svg" xmlns:xlink="http://www.w3.org/1999/xlink" width="908" height="91" viewBox="0 0 908 91"><defs><filter id="a" x="0" y="0" width="908" height="91" filterUnits="userSpaceOnUse"><feOffset dx="1" dy="7" input="SourceAlpha"/><feGaussianBlur stdDeviation="6.5" result="b"/><feFlood flood-opacity="0.059"/><feComposite operator="in" in2="b"/><feComposite in="SourceGraphic"/></filter></defs><g transform="translate(18.5 12.5)"><g transform="matrix(1, 0, 0, 1, -18.5, -12.5)" filter="url(#a)"><rect width="869" height="52" transform="translate(18.5 12.5)" fill="#fabe47"/></g><g transform="translate(334.119 1)"><text transform="translate(52 32)" fill="#051225" font-size="16" font-family="Lato-Regular, Lato"><tspan x="0" y="0">Warning goes here</tspan></text><path d="M10.327,5.111,3.521,17.531a1.168,1.168,0,0,0,1.041,1.725H18.178a1.171,1.171,0,0,0,1.041-1.725L12.41,5.111A1.193,1.193,0,0,0,10.327,5.111Zm1.718,5.153-.138,4.688H10.83l-.138-4.688Zm-.676,7.24A.708.708,0,1,1,12.1,16.8.714.714,0,0,1,11.368,17.5Z" transform="translate(14.506 14.622)" fill="#051225"/></g></g></svg>